<?xml version="1.0" encoding="UTF-8"?>
<svg version="1.1" xmlns="http://www.w3.org/2000/svg" width="4252" height="4252">
<path d="M0 0 C448.47 0 896.94 0 1359 0 C1359.74761838 5.23332867 1360.15117992 10.07789059 1360.15756124 15.31683713 C1360.16243036 16.13273663 1360.16729948 16.94863612 1360.17231615 17.78925984 C1360.18744198 20.52958109 1360.19560529 23.26987797 1360.20377254 26.01022816 C1360.21322098 28.00294391 1360.22307357 29.99565778 1360.2332938 31.98836972 C1360.26017852 37.49521637 1360.28074511 43.00207112 1360.30010385 48.50894873 C1360.31754247 53.27027072 1360.33838398 58.03157558 1360.35917521 62.79288393 C1360.42575394 78.07684943 1360.48092488 93.36084629 1360.53394046 108.64486301 C1360.5563174 115.07145668 1360.58007563 121.49804493 1360.60394373 127.92463321 C1360.90389651 208.69867512 1361.06130336 289.4726129 1361.10408697 577.45615844 C1361.09867275 606.74266171 1361.09583746 636.02916436 1361.09487724 665.31566811 C1361.09484283 666.33626647 1361.09480842 667.35686484 1361.09477296 668.40839043 C1361.09445954 677.7369727 1361.09417188 687.06555498 1361.09391499 696.39413725 C1361.09327754 719.53108812 1361.09231944 742.66803897 1361.09113979 765.80498981 C1361.09108648 766.85583256 1361.09103316 767.90667531 1361.09097823 768.98936177 C1361.08838909 819.46841273 1361.0820957 869.94746312 1361.07543945 920.42651367 C1361.07314671 937.83009847 1361.07087085 955.23368326 1361.06866455 972.63726807 C1361.0685276 973.71740809 1361.06839065 974.79754812 1361.06824955 975.91041966 C1361.061844 1026.61552412 1361.05816036 1077.32062867 1361.05512976 1128.02573342 C1361.0549317 1131.33853913 1361.05473251 1134.65134483 1361.05453308 1137.96415054 C1361.0532127 1159.92778131 1361.05193815 1181.89141208 1361.05069422 1203.85504285 C1361.04822104 1247.51576561 1361.04547951 1291.17648836 1361.04255217 1334.83721109 C1361.04241293 1336.91402756 1361.04227387 1338.99084403 1361.04213501 1341.0676605 C1361.03592324 1433.945091 1361.02659873 1526.82252109 1361.01586914 1619.69995117 C1361.01576921 1620.56518661 1361.01566927 1621.43042205 1361.01556631 1622.32187675 C1361.01057122 1665.54791786 1361.00539552 1708.77395894 1361 1752 C1357.10321279 1753.19139683 1353.54673606 1754.24810296 1349.46074617 1754.26648241 C1348.62438955 1754.27502103 1347.78803293 1754.28355964 1346.92633218 1754.292357 C1346.02603416 1754.29163016 1345.12573614 1754.29090332 1344.19815636 1754.29015446 C1343.22300558 1754.29722767 1342.24785479 1754.30430088 1341.24315399 1754.31158844 C1337.96590534 1754.33295138 1334.68877624 1754.34025898 1331.41146851 1754.34767151 C1329.03854981 1754.36022036 1326.66563554 1754.37363285 1324.29272616 1754.38783497 C1319.12385853 1754.41678491 1313.95500086 1754.43961365 1308.78608322 1754.45707893 C1301.08828828 1754.48312382 1293.39057696 1754.52046929 1285.69284149 1754.56010789 C1272.6868938 1754.62675734 1259.68092037 1754.68419075 1246.67490768 1754.73648262 C1233.65187655 1754.78887623 1220.62887404 1754.84544969 1207.60588455 1754.90736198 C1206.38204882 1754.91317664 1206.38204882 1754.91317664 1205.13348914 1754.91910876 C1200.98422646 1754.93884333 1196.83496413 1754.95864967 1192.68570192 1754.97848307 C1163.16957029 1755.11943661 1133.65340401 1755.2512248 1104.13720703 1755.37768555 C1076.01218552 1755.49820773 1047.88718571 1755.62253455 1019.76220703 1755.75268555 C1018.48450897 1755.7585955 1018.48450897 1755.7585955 1017.18099882 1755.76462485 C1008.60233609 1755.80430888 1000.02367375 1755.8440755 991.44501168 1755.88390204 C973.55152394 1755.96697053 955.65803366 1756.04948537 937.76454163 1756.13162231 C936.92576106 1756.13547329 936.08698049 1756.13932427 935.22278233 1756.14329194 C909.04078102 1756.26346196 882.8587677 1756.38071796 856.67674255 1756.49557495 C855.84768674 1756.49921216 855.01863093 1756.50284936 854.16445222 1756.50659679 C840.12952318 1756.56815702 826.0945932 1756.62950316 812.05966298 1756.6907948 C768.52112607 1756.88094247 724.98262932 1757.07735668 681.44417287 1757.28517182 C488.10520467 1758.20751315 488.10520467 1758.20751315 404.10412979 1758.23742771 C390.802538 1758.24217524 377.50102406 1758.25364106 364.19946289 1758.28125 C246.66834035 1758.52109607 246.66834035 1758.52109607 196 1755 C194.6957029 1754.91068144 193.39140579 1754.82136288 192.04758453 1754.72933769 C177.43097644 1753.72752094 162.81432007 1752.71856384 148.21875 1751.44140625 C146.91353394 1751.32825577 145.60831787 1751.21510529 144.2635498 1751.098526 C48.84890814 1742.76084822 -46.04139364 1729.17603358 -274.99688721 1665.68768311 C-276.93168955 1665.02345147 -278.86776003 1664.36305545 -280.80419922 1663.70361328 C-314.3587246 1652.23179102 -347.52552118 1639.24066034 -380 1625 C-381.06524902 1624.53464844 -382.13049805 1624.06929687 -383.22802734 1623.58984375 C-391.17519784 1620.11085477 -399.09398416 1616.5714213 -407 1613 C-408.05719238 1612.52433594 -409.11438477 1612.04867187 -410.20361328 1611.55859375 C-440.12398477 1598.05002683 -469.85950761 1583.57589927 -498.45361328 1567.43359375 C-501.34519568 1565.80565781 -504.24828477 1564.1993187 -507.15234375 1562.59375 C-519.36058236 1555.82762684 -531.44279412 1548.89052022 -543.35351562 1541.61328125 C-546.18288862 1539.88851218 -549.02105868 1538.1787571 -551.859375 1536.46875 C-567.93831683 1526.72973544 -583.59045071 1516.41242478 -599.18016052 1505.9135437 C-603.11920795 1503.26081893 -607.06670502 1500.6213455 -611.0216217 1497.99234009 C-616.81107035 1494.14357451 -622.5818486 1490.2761721 -628.25 1486.25 C-628.94343506 1485.75886719 -629.63687012 1485.26773438 -630.35131836 1484.76171875 C-638.98462806 1478.62213435 -647.49919823 1472.32115554 -656 1466 C-656.71607422 1465.46842285 -657.43214844 1464.9368457 -658.16992188 1464.38916016 C-667.56605606 1457.40773613 -676.836959 1450.28449982 -686 1443 C-686.8353125 1442.33742188 -687.670625 1441.67484375 -688.53125 1440.9921875 C-691.02778875 1439.0032783 -693.51546331 1437.00388663 -696 1435 C-696.58507324 1434.52836426 -697.17014648 1434.05672852 -697.77294922 1433.57080078 C-706.39337237 1426.61507086 -714.94676517 1419.59129615 -723.3671875 1412.39453125 C-725.08593704 1410.92660401 -726.80848996 1409.46321759 -728.53125 1408 C-734.97746526 1402.51318886 -741.32344671 1396.94481123 -747.5625 1391.22265625 C-749.64272725 1389.32578236 -751.74556898 1387.46607057 -753.875 1385.625 C-758.41973032 1381.66906065 -762.84045333 1377.58043672 -767.25366211 1373.47924805 C-769.07573185 1371.78605437 -770.89851517 1370.09372165 -772.72583008 1368.40618896 C-783.85671849 1358.12546686 -794.63860235 1347.51691797 -805.33959961 1336.79077148 C-808.08657845 1334.03837405 -810.83894203 1331.29144104 -813.59179688 1328.54492188 C-815.36490448 1326.7711543 -817.13770231 1324.997077 -818.91015625 1323.22265625 C-820.12591087 1322.00993797 -820.12591087 1322.00993797 -821.3662262 1320.77272034 C-825.55672943 1316.56503289 -829.59489462 1312.28867855 -833.44651794 1307.76756287 C-835.06091156 1305.93069439 -836.75419384 1304.21175462 -838.5 1302.5 C-841.51413582 1299.53264677 -844.29917333 1296.42654708 -847.05859375 1293.22265625 C-849.28804061 1290.67023117 -851.58001382 1288.18112486 -853.875 1285.6875 C-858.01925965 1281.1482504 -861.92578398 1276.46541704 -865.78515625 1271.68359375 C-867.95632827 1269.05291443 -870.20241357 1266.52057576 -872.5 1264 C-876.72281823 1259.35562677 -880.69597656 1254.54608208 -884.64257812 1249.66650391 C-886.19372936 1247.76215888 -887.75988929 1245.87076869 -889.328125 1243.98046875 C-895.88843218 1236.06985338 -902.34015891 1228.11259866 -908.54345703 1219.91748047 C-910.25918312 1217.6587958 -911.98688728 1215.40949763 -913.71484375 1213.16015625 C-922.34278012 1201.91194541 -930.78504501 1190.55309543 -939 1179 C-939.51014648 1178.28360352 -940.02029297 1177.56720703 -940.54589844 1176.82910156 C-989.56016746 1107.92318246 -1033.36830232 1034.75067681 -1069 958 C-1069.80244141 956.27958496 -1069.80244141 956.27958496 -1070.62109375 954.52441406 C-1093.91516317 904.49915752 -1114.30138054 853.26180468 -1132 801 C-1132.28941467 800.14613708 -1132.57882935 799.29227417 -1132.87701416 798.41253662 C-1147.57736117 754.95632647 -1160.48668572 710.94209685 -1171.41394043 666.38525391 C-1172.00973546 663.96037681 -1172.61038108 661.5367408 -1173.21191406 659.11328125 C-1200.57942386 548.61820861 -1216.48276884 435.63823253 -1224.8125 312.75 C-1224.87602661 311.78299164 -1224.93955322 310.81598328 -1225.00500488 309.81967163 C-1225.18236953 307.0832348 -1225.35251305 304.34646098 -1225.51953125 301.609375 C-1225.56924576 300.83791641 -1225.61896027 300.06645782 -1225.67018127 299.2716217 C-1225.95461239 294.40638002 -1226.02118132 289.56241516 -1226.01225281 284.6885376 C-1226.01048381 283.43412998 -1226.00871481 282.17972237 -1226.0068922 280.8873024 C-1226.00461778 279.93449261 -1226.00234335 278.98168282 -1226 278 C-1167.54313552 277.97713627 -1109.08627131 277.9595011 -1050.62940327 277.94893467 C-1043.73592704 277.94768728 -1036.84245082 277.94639073 -1029.94897461 277.94506836 C-1028.91997155 277.94487222 -1028.91997155 277.94487222 -1027.87018056 277.94467212 C-1005.61483845 277.94040697 -983.35949887 277.93289282 -961.1041583 277.92370278 C-937.59617713 277.91401305 -914.08819822 277.90800639 -890.58021492 277.90591151 C-876.48917648 277.90453594 -862.39814531 277.90018354 -848.30710911 277.89208353 C-838.65859433 277.88681807 -829.01008332 277.88519525 -819.36156721 277.88649862 C-813.78587967 277.88714232 -808.21020487 277.88612097 -802.63451958 277.88079453 C-797.5390126 277.87596204 -792.44352704 277.87566035 -787.34801912 277.87910111 C-785.49606159 277.87952695 -783.64410278 277.87822995 -781.79214782 277.87511682 C-779.29187862 277.87115531 -776.79168869 277.87323505 -774.29142094 277.87695217 C-773.55765339 277.87432516 -772.82388585 277.87169814 -772.06788293 277.86899152 C-767.1141458 277.8858542 -767.1141458 277.8858542 -766 279 C-765.76570349 280.66422753 -765.59374824 282.337274 -765.44677734 284.01147461 C-765.34903015 285.09322968 -765.25128296 286.17498474 -765.15057373 287.28952026 C-765.04674377 288.48175201 -764.94291382 289.67398376 -764.8359375 290.90234375 C-764.60309043 293.46564114 -764.36949619 296.02887075 -764.13525391 298.59204102 C-764.07414429 299.26602936 -764.01303467 299.9400177 -763.95007324 300.63442993 C-755.806212 390.41463415 -739.30165661 479.00493631 -625.44921875 769.38671875 C-623.91703484 772.14960565 -622.42324849 774.93063256 -620.9375 777.71875 C-613.32947705 791.98540863 -605.26504264 805.94179165 -596.92724609 819.79248047 C-595.15509767 822.74187064 -593.39785719 825.69955363 -591.64453125 828.66015625 C-582.55031947 843.91742132 -572.69423169 858.64694336 -562.77954102 873.37744141 C-559.76703782 877.85334999 -556.77710849 882.34352575 -553.80175781 886.84423828 C-528.47676042 925.10907863 -500.12962393 961.50591237 -470.36083984 996.40087891 C-468.95021698 998.05849996 -467.54712211 999.72229828 -466.14453125 1001.38671875 C-460.32671284 1008.26425612 -454.34705008 1014.95233488 -448.15893555 1021.49951172 C-445.00660537 1024.8353953 -441.91364089 1028.21229873 -438.86425781 1031.64282227 C-434.27665377 1036.74554113 -429.50961515 1041.63543559 -424.65234375 1046.48046875 C-423.79620987 1047.33755936 -422.94007599 1048.19464996 -422.05799866 1049.07771301 C-420.26344465 1050.87294209 -418.46764904 1052.66693085 -416.6706543 1054.4597168 C-413.93748595 1057.18751402 -411.20971705 1059.92062895 -408.48242188 1062.65429688 C-406.72688313 1064.40917498 -404.97103429 1066.16374294 -403.21484375 1067.91796875 C-402.40941635 1068.72542038 -401.60398895 1069.53287201 -400.77415466 1070.36479187 C-396.55481574 1074.56688437 -392.26385378 1078.61971238 -387.74227905 1082.49583435 C-384.98414191 1084.87702302 -382.34454741 1087.3824185 -379.6875 1089.875 C-374.8189425 1094.40901694 -369.80667836 1098.68492781 -364.6171875 1102.8515625 C-361.98158387 1105.01511772 -359.45576625 1107.2638956 -356.9375 1109.5625 C-353.00482867 1113.13765575 -348.96764535 1116.50891266 -344.79296875 1119.796875 C-342.76262665 1121.39843157 -340.7459513 1123.01117784 -338.73828125 1124.640625 C-328.36661762 1133.04137174 -317.71581441 1141.04518984 -307 1149 C-306.17886719 1149.61198242 -305.35773437 1150.22396484 -304.51171875 1150.85449219 C-293.83252565 1158.81279039 -283.04433061 1166.55697266 -272 1174 C-271.22495117 1174.52529297 -270.44990234 1175.05058594 -269.65136719 1175.59179688 C-248.95871261 1189.60491815 -227.85156663 1202.86651338 -206 1215 C-205.07912598 1215.51191895 -204.15825195 1216.02383789 -203.20947266 1216.55126953 C-192.41070807 1222.53699751 -181.56723853 1228.39978193 -170.46191406 1233.79785156 C-167.49686793 1235.24567853 -164.54218113 1236.7139725 -161.5859375 1238.1796875 C-75.65883309 1280.51895779 19.20418774 1302.23001732 275.68393135 1334.88694763 C277.258262 1334.96379415 278.83250349 1335.04248477 280.40666008 1335.12281799 C299.1503131 1336.06051749 317.87257079 1336.16357347 336.63369107 1336.16704226 C340.23889839 1336.16831894 343.84409962 1336.17284647 347.4493044 1336.17713451 C359.56282674 1336.19107587 371.67633298 1336.19064139 383.7898612 1336.18797541 C387.00570669 1336.18749915 390.22155151 1336.18765134 393.437397 1336.18803024 C479.94008191 1336.19794364 566.43750423 1335.686701 652.9375 1335.0625 C653.69786875 1335.05701611 654.4582375 1335.05153223 655.24164772 1335.04588217 C701.16123564 1334.71454079 747.080611 1334.35811762 793 1334 C835.9 1333.67 878.8 1333.34 923 1333 C922.67 1027.75 922.34 722.5 922 408 C904.11991294 404.58799676 904.11991294 404.58799676 886.18969822 401.49557877 C885.33894722 401.35655529 884.48819622 401.21753182 883.61166489 401.07429552 C882.73015727 400.93029802 881.84864966 400.78630052 880.94042969 400.63793945 C879.02504537 400.32299416 877.10969953 400.0078148 875.19438839 399.69242477 C870.02133021 398.84127654 864.84773738 397.99342096 859.67403579 397.14619374 C854.12236445 396.23647396 848.57120326 395.32365088 843.01997375 394.41123962 C832.29785675 392.64944715 821.57526801 390.89054279 810.85248941 389.13278192 C802.2146498 387.71675797 793.57697792 386.29971509 784.93942261 384.88195801 C783.100338 384.58009663 783.100338 384.58009663 781.22410017 384.27213705 C778.74272895 383.86485115 776.26135789 383.45756431 773.77998698 383.05027652 C751.42903831 379.38177985 729.07754793 375.71659378 706.7257601 372.05321383 C690.07285539 369.32384151 673.42027238 366.59251883 656.76806641 363.85888672 C640.17908785 361.13566033 623.58977441 358.41448957 606.99982262 355.69719791 C605.32031606 355.42210607 603.64080976 355.14701268 601.96130371 354.87191772 C601.13942963 354.73730076 600.31755555 354.6026838 599.4707762 354.46398753 C593.71213154 353.5206194 587.95373428 352.57575072 582.19543457 351.63027954 C575.28705518 350.49601067 568.37831908 349.36394712 561.46908301 348.23490781 C558.00976377 347.66956842 554.55061377 347.10324539 551.09191322 346.534132 C547.4029767 345.92768934 543.71342722 345.32513019 540.02368164 344.72363281 C538.95094875 344.54633794 537.87821587 344.36904306 536.77297592 344.18637562 C535.30917936 343.94900952 535.30917936 343.94900952 533.81581116 343.70684814 C532.97566499 343.56924702 532.13551882 343.43164589 531.26991367 343.28987503 C528.72009506 342.91555042 528.72009506 342.91555042 525 343 C540.02983229 382.02477575 540.02983229 382.02477575 555.1875 421 C560.91841308 435.65795823 566.62505638 450.32511595 572.3125 465 C572.70597626 466.01522736 573.09945251 467.03045471 573.50485229 468.07644653 C575.51148711 473.25414481 577.51778535 478.43197343 579.52392578 483.60986328 C583.3530787 493.49259779 587.18475903 503.37435243 591.01644897 513.25610352 C592.20940401 516.33280069 593.40220291 519.40955836 594.5949707 522.48632812 C594.96809891 523.4485025 595.34122711 524.41067688 595.72566223 525.40200806 C596.45073164 527.27251071 597.1751857 529.14325202 597.89897156 531.01425171 C599.61568351 535.44880146 601.3443576 539.87791207 603.09960938 544.29736328 C603.42854187 545.12978043 603.75747437 545.96219757 604.09637451 546.81983948 C604.71227962 548.37681618 605.33219001 549.93221683 605.95684814 551.48570251 C607.13596604 554.47413455 608 556.75621103 608 560 C602.33202191 559.38407127 596.92918361 558.38646074 591.39819336 557.02001953 C590.56816803 556.81878668 589.7381427 556.61755383 588.88296509 556.41022301 C586.11754496 555.73864109 583.35371925 555.0607208 580.58984375 554.3828125 C578.59901822 553.89800451 576.60809453 553.41359948 574.61708069 552.92956543 C569.19541653 551.61035843 563.77509797 550.28569675 558.35498047 548.96015167 C552.57405031 547.54742861 546.79185452 546.13990511 541.00976562 544.73193359 C531.25576867 542.35621064 521.50243908 539.97776603 511.74951172 537.59765625 C497.62771761 534.15168656 483.50369348 530.71492789 469.37890625 527.28125 C467.10139424 526.72756109 464.82388265 526.1738705 462.54637146 525.62017822 C459.12826001 524.78920055 455.71014658 523.95823099 452.29202557 523.12729263 C439.5484415 520.02925062 426.80545615 516.92874855 414.0625 513.828125 C411.72583543 513.25958144 409.38917059 512.69103896 407.05250549 512.12249756 C398.86486771 510.1303232 390.6772459 508.13808321 382.48962402 506.14584351 C364.99316568 501.88855451 347.49664465 497.63152327 330 493.375 C328.84899811 493.0949839 327.69799622 492.8149678 326.51211548 492.52646637 C292.17734334 484.17358523 257.83983115 475.83205709 223.5 467.5 C189.15935871 459.16774634 154.82105375 450.82595091 120.48545837 442.47292709 C117.00353532 441.62586006 113.52160473 440.778824 110.03967285 439.93179321 C87.76032194 434.51195371 65.48123371 429.09103584 43.20269489 423.66785908 C30.21859377 420.50720306 17.23434787 417.3471422 4.25 414.1875 C3.09181889 413.90565228 1.93363777 413.62380455 0.74036026 413.33341599 C-32.70261438 405.19514331 -66.15306996 397.08848009 -99.61100769 389.01195908 C-129.35750705 381.83114311 -159.08885881 374.59015941 -188.81155777 367.31148911 C-218.02883919 360.15670699 -247.2588116 353.05642492 -276.5 346 C-307.61571039 338.49121919 -338.7171515 330.92636168 -369.80731201 323.3125 C-398.08261304 316.38828775 -426.36937419 309.5134013 -454.66764069 302.6836586 C-485.48202729 295.2458592 -516.29212171 287.79049968 -547.08959961 280.28295898 C-551.08185688 279.30987517 -555.07454168 278.33857683 -559.06762695 277.36889648 C-563.72557526 276.23766076 -568.38260705 275.10272786 -573.03895187 273.96491051 C-574.74222834 273.54932598 -576.44581499 273.13501033 -578.14973831 272.72208595 C-586.20605905 270.76884912 -594.1895884 268.81177052 -602 266 C-602 265.67 -602 265.34 -602 265 C-536.30206513 264.76134735 -470.62882317 264.95760434 -404.9375 265.9375 C-404.16101514 265.94907938 -403.38453028 265.96065875 -402.58451557 265.97258902 C-401.00740458 265.99611174 -399.43029361 266.01963645 -397.85318267 266.04316312 C-387.51152527 266.19741937 -377.169849 266.35026888 -366.828125 266.5 C-365.64360221 266.51719428 -365.64360221 266.51719428 -364.43514967 266.53473592 C-340.82688267 266.87646606 -317.21974613 267.11896773 -293.609375 267.25 C-292.52156235 267.25608933 -292.52156235 267.25608933 -291.41177368 267.26230168 C-283.30716017 267.30752832 -275.20253364 267.35011003 -267.09790039 267.39163208 C-206.53631364 267.70225234 -145.99148935 268.49490156 -85.4375 269.5 C-69.13547249 269.77038667 -52.83341948 270.03907541 -36.53125 270.30078125 C-35.53915181 270.31670806 -34.54705362 270.33263488 -33.52489185 270.34904432 C6.12333018 270.98359828 45.77122322 271.40975404 85.42357016 271.67322159 C87.53426995 271.68731155 89.64496759 271.7016891 91.75566483 271.71615601 C128.83737343 271.96956702 165.91753581 272.04637956 203 272 C202.59725483 271.48330403 202.19450966 270.96660807 201.77956009 270.43425465 C199.9374447 268.07029081 198.09615744 265.7056832 196.25488281 263.34106445 C195.62131866 262.52827278 194.98775452 261.71548111 194.33499146 260.87805939 C190.0523353 255.37655643 185.84555522 249.83000715 181.75 244.1875 C176.74167016 237.34329252 171.64464843 230.58669207 166.45214844 223.88085938 C158.18574149 213.17400007 149.99597392 202.41048004 142 191.5 C134.47075018 181.22796734 126.74170236 171.1123672 119 161 C110.67009951 150.11931658 102.38587386 139.21495735 94.28637695 128.16137695 C89.28231848 121.34717439 84.16665166 114.62177525 79.03125 107.90625 C73.86125366 101.14242049 68.74531019 94.33990756 63.64697266 87.52197266 C59.11306202 81.46605688 54.53299001 75.44677445 49.9375 69.4375 C44.84642216 62.77903867 39.82453423 56.07679386 34.875 49.3125 C30.34871122 43.12748924 25.72873899 37.03158175 21 31 C15.97171345 24.57258771 11.00629183 18.10243488 6.125 11.5625 C5.51140625 10.75103516 4.8978125 9.93957031 4.265625 9.10351562 C3.70617188 8.34876953 3.14671875 7.59402344 2.5703125 6.81640625 C1.82418701 5.81782593 1.82418701 5.81782593 1.06298828 4.79907227 C0 3 0 3 0 0 Z " fill="#FFEE31" transform="translate(1990,1888)"/>
<path d="M0 0 C3.8428286 -0.00109654 7.68565145 -0.00550324 11.52847774 -0.00967212 C24.56850393 -0.02335414 37.60851501 -0.02256478 50.64854628 -0.01930481 C54.16414929 -0.01861308 57.6797519 -0.01847172 61.19535497 -0.01851073 C146.01314966 -0.01873612 230.82837111 0.32893548 496.48530383 1.87221981 C524.56550057 2.04468535 552.64571525 2.21391514 580.72594717 2.3805531 C581.68512059 2.38624626 582.644294 2.39193942 583.63253328 2.3978051 C593.29271025 2.45513995 602.95288755 2.51241927 612.61306507 2.56966034 C632.68818533 2.68861761 652.76330317 2.80798196 672.83841971 2.92756543 C673.77149673 2.93312317 674.70457375 2.93868092 675.66592583 2.94440708 C702.39770952 3.10365039 729.12948484 3.26423176 755.86125032 3.42650352 C758.38374775 3.44181201 760.90624527 3.45710744 763.4287428 3.47239893 C780.68599966 3.57702246 797.94325244 3.68224246 815.20049403 3.78935691 C822.48360477 3.83452709 829.76671722 3.87942018 837.04983023 3.92422375 C837.85197093 3.9291633 838.65411163 3.93410284 839.48055962 3.93919207 C864.68764066 4.09428317 889.8947811 4.23391437 915.10199327 4.36587501 C921.9758703 4.40193969 928.8497423 4.43886276 935.72361156 4.47637668 C937.16503475 4.4842415 937.16503475 4.4842415 938.6355776 4.49226519 C943.44899537 4.51856019 948.2624125 4.54496884 953.0758292 4.57145729 C963.37081573 4.62792806 973.66580957 4.68142568 983.96083111 4.73110922 C990.94309952 4.76503948 997.92534497 4.80232552 1004.90758192 4.84220332 C1008.93762855 4.86510069 1012.96766794 4.88644857 1016.99774326 4.90364532 C1020.70502385 4.91948455 1024.4122551 4.93969317 1028.11949457 4.96323001 C1030.08307578 4.97458566 1032.04668192 4.98135324 1034.01028504 4.98790761 C1055.293767 5.13782605 1055.293767 5.13782605 1057.32091787 7.16497692 C1057.42085024 9.38873127 1057.4483219 11.6157355 1057.44955233 13.84173378 C1057.45218188 14.90624118 1057.45218188 14.90624118 1057.45486456 15.99225378 C1057.45956326 18.40038723 1057.45704921 20.80846131 1057.45463064 23.21659741 C1057.45649667 24.94845174 1057.45879654 26.68030565 1057.46149597 28.41215888 C1057.46764611 33.19470408 1057.46747662 37.97723188 1057.46630159 42.75978014 C1057.46609839 47.90845427 1057.47160857 53.05712268 1057.47635916 58.20579419 C1057.48468378 68.3016224 1057.48741481 78.39744478 1057.48797154 88.49327614 C1057.48844583 96.69499161 1057.49049621 104.89670514 1057.49367216 113.09841999 C1057.50248357 136.32414343 1057.50709076 159.54986223 1057.50634169 182.77558734 C1057.50630173 184.02903464 1057.50626178 185.28248193 1057.50622061 186.57391247 C1057.50617973 187.82888055 1057.50613885 189.08384864 1057.50609673 190.37684605 C1057.50569009 210.72559805 1057.51526292 231.07433156 1057.52935898 251.4230782 C1057.54370051 272.28992983 1057.55063039 293.15677242 1057.5497652 314.0236291 C1057.54943246 325.74969216 1057.55221284 337.47573584 1057.56294325 349.20179448 C1057.57201907 359.18413816 1057.57424766 369.16645367 1057.56743383 379.14879968 C1057.56415381 384.24666991 1057.56416488 389.34448601 1057.57278708 394.44235119 C1057.58058811 399.10243099 1057.57928697 403.76241316 1057.57050294 408.4224904 C1057.56895371 410.11494831 1057.57083687 411.80741327 1057.57636302 413.49986287 C1057.58334208 415.78748918 1057.5781942 418.07476522 1057.56980684 420.36237893 C1057.57002421 421.63693772 1057.57024158 422.91149652 1057.57046553 424.22467831 C1057.32091787 427.16497692 1057.32091787 427.16497692 1055.32091787 429.16497692 C1052.28287435 429.33752512 1049.33871362 429.38162326 1046.30127791 429.33857235 C1044.87412722 429.33026987 1044.87412722 429.33026987 1043.41814521 429.32179967 C1040.19091567 429.30052212 1036.9640042 429.264718 1033.73690298 429.22912487 C1031.41133097 429.21079027 1029.08575183 429.1933417 1026.76016703 429.17670736 C1021.00697458 429.13323825 1015.25392153 429.08032373 1009.50084606 429.02356856 C1002.60082371 428.95603173 995.70071967 428.90019597 988.80059074 428.84482511 C975.99844195 428.74176556 963.19639202 428.62925658 950.39436987 428.51158795 C937.54031551 428.39348422 924.68623362 428.27980064 911.83209112 428.17169842 C911.02625634 428.16491946 910.22042156 428.15814049 909.39016755 428.15115611 C905.29104455 428.11669659 901.19192089 428.0823157 897.09279697 428.04796636 C867.88816702 427.80311405 838.68362356 427.54905789 809.479121 427.28948864 C781.7594267 427.04314637 754.0397096 426.79983162 726.31994131 426.56194958 C725.48396547 426.55477457 724.64798963 426.54759956 723.78668119 426.54020713 C713.6814753 426.45348826 703.57626792 426.36694369 693.4710598 426.28048575 C680.01129072 426.1653248 666.55152353 426.04994218 653.09175612 425.93458587 C648.05204132 425.89139443 643.01232635 425.84822117 637.97261129 425.80505998 C616.12765359 425.61796271 594.28270594 425.4297294 572.43776428 425.24077051 C493.22934629 424.55568208 414.02082206 423.88742689 315.23317813 423.12615255 C304.90833556 423.04702439 294.5835021 422.96679522 284.25867346 422.88587078 C218.10237035 422.36818239 151.9473712 421.98172071 85.78907765 421.85746947 C83.99826688 421.85410281 82.20745623 421.85067389 80.41664569 421.84718683 C75.04656273 421.83673319 69.67647937 421.82709904 64.30639283 421.81866843 C62.66559627 421.81604685 61.02479995 421.81325651 59.38400401 421.81026924 C25.27901096 421.74970503 -8.65578176 422.63780428 -42.67908213 425.16497692 C-44.20097671 425.27557562 -45.72287771 425.38608604 -47.24478647 425.49648938 C-55.29421472 426.08742195 -63.33144558 426.78028564 -71.36658213 427.53997692 C-72.50604288 427.64513623 -73.64550363 427.75029553 -74.8194935 427.85864148 C-124.49056587 432.44563144 -173.15185163 439.49197822 -221.67908213 451.16497692 C-222.37394724 451.33106457 -223.06881235 451.49715222 -223.78473398 451.66827282 C-301.34546407 470.22705468 -375.23328738 500.88996392 -480.96130869 554.64788708 C-483.86973254 556.2714 -486.78581861 557.88060492 -489.70251963 559.48919567 C-510.22676385 570.84828391 -530.33586856 582.87257088 -550.09460947 595.51507458 C-553.03055636 597.38935468 -555.97391373 599.25172178 -558.91736338 601.11419567 C-568.860312 607.42063722 -578.74284914 613.73299428 -588.24548838 620.68841442 C-591.62165437 623.15131392 -595.07961004 625.48546917 -598.54285166 627.82366833 C-607.2204663 633.68430259 -615.60905783 639.81833933 -623.88220713 646.23528942 C-627.02149104 648.66986788 -630.20426848 651.03172953 -633.42908213 653.35247692 C-639.62127148 657.81683064 -645.65415235 662.47930795 -651.67908213 667.16497692 C-652.22935068 667.59149548 -652.77961923 668.01801403 -653.34656259 668.45745739 C-666.65321495 678.78031149 -679.80450635 689.29283224 -692.12048838 700.78997692 C-694.26775472 702.78316461 -696.44824376 704.7046676 -698.67908213 706.60247692 C-706.97161235 713.80434033 -714.5764043 721.80054595 -721.67908213 730.16497692 C-722.65307663 731.28847147 -723.62847505 732.41074964 -724.60486338 733.53216442 C-734.81444429 745.25981915 -744.87337301 757.09641187 -754.67908213 769.16497692 C-755.69972647 770.41513124 -756.7205728 771.66512068 -757.74158213 772.91497692 C-764.35858546 781.02445582 -770.89019169 789.19354434 -777.33191416 797.44280896 C-778.7030365 799.19559928 -780.07893017 800.94453561 -781.45642588 802.69232067 C-795.72652407 820.79927308 -809.5961142 839.1756271 -823.04675791 857.90032849 C-824.64429237 860.11671043 -826.25162884 862.32559031 -827.86267588 864.53216442 C-836.39475968 876.2353263 -844.58894561 888.15275286 -852.67908213 900.16497692 C-853.22483896 900.97531384 -853.7705958 901.78565075 -854.33289072 902.62054333 C-888.37466927 953.25623934 -918.85580674 1005.87729579 -946.67908213 1060.16497692 C-947.39378672 1061.55136364 -947.39378672 1061.55136364 -948.12292978 1062.96575817 C-983.23416155 1131.19197319 -1010.4707977 1204.07473246 -1031.14459726 1277.88711438 C-1032.57328587 1282.95338441 -1032.57328587 1282.95338441 -1033.67908213 1285.16497692 C-1191.41908213 1285.16497692 -1349.15908213 1285.16497692 -1511.67908213 1285.16497692 C-1511.08490767 1275.65818559 -1510.50701882 1266.57888761 -1509.03455088 1257.24310192 C-1508.86910272 1256.16416668 -1508.70365457 1255.08523144 -1508.53319284 1253.97360119 C-1507.98804147 1250.45233941 -1507.42911133 1246.93350232 -1506.86658213 1243.41497692 C-1506.67167185 1242.18643994 -1506.47676157 1240.95790295 -1506.27594492 1239.69213757 C-1493.98293195 1162.62815749 -1475.52429298 1086.75356971 -1452.67908213 1012.16497692 C-1452.41567026 1011.30426587 -1452.15225839 1010.44355481 -1451.88086435 1009.55676159 C-1435.14632425 954.97603966 -1415.55734771 901.47708723 -1392.67908213 849.16497692 C-1392.41391794 848.55664013 -1392.14875376 847.94830334 -1391.87555429 847.3215321 C-1383.01758909 827.00095505 -1373.48233348 807.04166571 -1363.67908213 787.16497692 C-1363.32185068 786.439557 -1362.96461923 785.71413708 -1362.59656259 784.96673474 C-1354.09906101 767.71365649 -1345.53305669 750.52188929 -1336.12390634 733.74261364 C-1334.62404265 731.06678383 -1333.13775275 728.38367524 -1331.65173838 725.70013317 C-1323.99582614 711.94742633 -1315.88536103 698.49089069 -1307.66663095 685.07093701 C-1305.60236471 681.69459245 -1303.56714155 678.30323509 -1301.56189463 674.89153942 C-1294.12852327 662.25086705 -1286.07394272 650.06893394 -1277.87764475 637.9160603 C-1275.14928868 633.87006488 -1272.44849694 629.80663667 -1269.75745127 625.73577771 C-1263.58512229 616.41040785 -1257.18479959 607.26010699 -1250.67908213 598.16497692 C-1249.91990488 597.09859997 -1249.91990488 597.09859997 -1249.14539072 596.01068005 C-1233.27163751 573.72435104 -1216.45884693 552.15486793 -1199.15125009 530.96917614 C-1197.85636702 529.38224647 -1196.56617734 527.79148956 -1195.27673838 526.20013317 C-1189.71302055 519.34861086 -1183.9847403 512.6479874 -1178.22302744 505.96331677 C-1176.70872127 504.19949969 -1175.2041083 502.42790802 -1173.70251963 500.65325817 C-1168.01670642 493.94636143 -1162.1928912 487.40767269 -1156.18103525 480.99090466 C-1153.48277991 478.1107856 -1150.81480166 475.22094588 -1148.24158213 472.22747692 C-1143.84892533 467.14408295 -1139.22263346 462.27494253 -1134.62488291 457.37786755 C-1132.21385252 454.80743325 -1129.81072858 452.23024699 -1127.41907236 449.64178357 C-1117.54042441 438.97970637 -1107.33139968 428.66342268 -1097.04260752 418.39813122 C-1095.16089445 416.52002642 -1093.28060173 414.64064268 -1091.40295908 412.75848278 C-1088.64482184 409.99414481 -1085.88321969 407.23331649 -1083.12048838 404.47357067 C-1082.29013574 403.64119381 -1081.45978311 402.80881695 -1080.60426828 401.95121655 C-1076.34322708 397.70713746 -1072.01875739 393.61021789 -1067.43895456 389.71076855 C-1065.6043148 388.09930472 -1063.88832298 386.40819643 -1062.17908213 384.66497692 C-1059.23307998 381.67263317 -1056.14925205 378.9117352 -1052.96814463 376.17278942 C-1050.74335074 374.22134905 -1048.56737711 372.22314045 -1046.39807627 370.21038708 C-1041.19200918 365.38193207 -1035.86092232 360.79992562 -1030.32751963 356.34466442 C-1027.70633094 354.18740294 -1025.18753932 351.95186692 -1022.67908213 349.66497692 C-1018.50893344 345.87333939 -1014.22115237 342.27512516 -1009.83923838 338.73138317 C-1007.47670526 336.82074654 -1005.13515734 334.88652927 -1002.80017588 332.94232067 C-994.34196008 325.90830317 -985.761917 319.08649421 -976.99158213 312.44622692 C-973.29671128 309.64647051 -969.64352038 306.79682394 -965.99719736 303.93426403 C-957.12615007 296.97588329 -948.07987055 290.30840356 -938.90271494 283.76068005 C-936.72156078 282.19546007 -934.55388618 280.61336412 -932.39001963 279.02435192 C-920.94586479 270.63844832 -909.19790287 262.75305889 -897.35828134 254.93792614 C-894.49142624 253.0407964 -891.63765797 251.12511815 -888.786504 249.20452771 C-863.66894185 232.3202589 -837.74970552 216.49492425 -811.36316416 201.67474255 C-808.47309672 200.04911248 -805.58973556 198.41193521 -802.70642588 196.77435192 C-789.12064637 189.0835851 -775.37601209 181.76215867 -761.49353525 174.62298474 C-758.97723202 173.3194314 -756.47340539 171.99639143 -753.97595713 170.65716442 C-704.51306885 144.13469121 -652.39533516 122.27398584 -599.67908213 103.16497692 C-598.47726297 102.72795452 -598.47726297 102.72795452 -597.25116464 102.28210339 C-492.71764046 64.29476776 -383.98791792 37.59792826 -62.67908213 1.16497692 C-61.7166369 1.11865466 -60.75419167 1.0723324 -59.76258144 1.02460644 C-39.83899155 0.10053527 -19.94020219 0.00240283 0 0 Z " fill="#FFEE31" transform="translate(2293.6790821254253,442.8350230753422)"/>
<path d="M0 0 C1.65509321 1.4852156 3.29712827 2.9852899 4.91796875 4.5078125 C7.06533098 6.54881471 7.06533098 6.54881471 9.44140625 8.2734375 C38.80569906 33.02395743 55.92104815 75.35754726 61.1015625 112.515625 C61.1958252 113.14919922 61.29008789 113.78277344 61.38720703 114.43554688 C62.40673504 122.13216262 62.34530573 129.89029359 62.3515625 137.640625 C62.35223724 138.39339722 62.35291199 139.14616943 62.35360718 139.92175293 C62.3242004 160.66919473 59.38105779 180.44782207 54.1015625 200.515625 C53.92431641 201.18964355 53.74707031 201.86366211 53.56445312 202.55810547 C48.95353169 219.38090217 40.65402179 236.62736763 30.1015625 250.515625 C29.45703125 251.36769531 28.8125 252.21976563 28.1484375 253.09765625 C23.41906664 259.15832639 18.3310994 264.88453438 13.1015625 270.515625 C12.5240625 271.15886719 11.9465625 271.80210937 11.3515625 272.46484375 C-14.39844512 299.88170454 -53.85868041 316.25239697 -90.8984375 319.515625 C-92.68121094 319.67998047 -92.68121094 319.67998047 -94.5 319.84765625 C-138.70859008 323.45946916 -186.08918085 312.30096422 -220.4609375 283.19238281 C-224.05000571 280.07662297 -227.48026477 276.81721612 -230.8984375 273.515625 C-231.81238281 272.66484375 -232.72632812 271.8140625 -233.66796875 270.9375 C-246.49240045 258.68181992 -255.9499444 244.29647507 -263.8984375 228.515625 C-264.25921387 227.80212891 -264.61999023 227.08863281 -264.99169922 226.35351562 C-288.21359432 179.54571232 -289.26327819 122.98413822 -272.76220703 73.93847656 C-257.82276319 32.03371662 -227.20959402 -2.36397271 -186.97851562 -21.53564453 C-128.22261003 -48.33440617 -50.04529717 -42.895969 0 0 Z M-142.8984375 -11.484375 C-143.5569873 -11.33983887 -144.21553711 -11.19530273 -144.89404297 -11.04638672 C-182.73039501 -2.43811615 -214.56001508 20.00027857 -235.484375 52.57421875 C-259.0534259 90.3801745 -265.23933712 137.7612921 -255.51074219 180.91308594 C-250.68452354 201.42643951 -242.77494702 221.64116696 -229.8984375 238.515625 C-229.2384375 239.39476562 -228.5784375 240.27390625 -227.8984375 241.1796875 C-217.62651625 254.28393998 -205.73439253 265.29947854 -191.8984375 274.515625 C-190.93808594 275.16015625 -189.97773438 275.8046875 -188.98828125 276.46875 C-155.55450338 297.34722732 -112.33399054 302.13029761 -74.3984375 293.390625 C-50.14563166 287.4408909 -28.45317375 276.18318303 -9.8984375 259.515625 C-9.34430176 259.01804687 -8.79016602 258.52046875 -8.21923828 258.0078125 C17.86013023 234.16746097 31.90281287 199.96605754 37.1015625 165.515625 C37.25407471 164.51341919 37.25407471 164.51341919 37.40966797 163.4909668 C38.38126154 156.09663746 38.34518 148.64955231 38.3515625 141.203125 C38.35223724 140.49386871 38.35291199 139.78461243 38.35360718 139.05386353 C38.33592875 127.31720683 37.61917512 116.00347156 35.1015625 104.515625 C34.93527344 103.73509766 34.76898437 102.95457031 34.59765625 102.15039062 C28.41311423 73.99927157 14.80117463 49.42642486 -4.8984375 28.515625 C-5.49785156 27.85175781 -6.09726563 27.18789062 -6.71484375 26.50390625 C-16.5728676 16.00713356 -29.23194256 8.15247296 -41.8984375 1.515625 C-43.04441406 0.90976563 -44.19039062 0.30390625 -45.37109375 -0.3203125 C-74.8858831 -15.31298174 -110.79438674 -18.58074102 -142.8984375 -11.484375 Z " fill="#FFEE31" transform="translate(2689.8984375,1274.484375)"/>
<path d="M0 0 C8.91 0 17.82 0 27 0 C31.54585426 8.97009969 35.89435171 17.98646512 40.02243042 27.1552124 C41.30772518 30.00973696 42.59938339 32.86137016 43.89051819 35.71325684 C44.5699686 37.21417808 45.24911495 38.715237 45.92796326 40.21643066 C49.57509014 48.27968345 53.2550195 56.32784738 56.9375 64.375 C57.60736855 65.83942401 58.27720894 67.30386091 58.94702148 68.76831055 C60.29248941 71.70986857 61.63813092 74.6513471 62.98388672 77.59277344 C65.99108477 84.16600521 68.9959587 90.74029943 72.00100708 97.31451416 C73.66724276 100.95971967 75.333629 104.60485635 77 108.25 C77.66666739 109.708333 78.33333405 111.16666634 79 112.625 C79.495 113.7078125 79.495 113.7078125 80 114.8125 C83.00000001 121.37500001 83.00000001 121.37500001 83.99998474 123.56246948 C84.66669939 125.02090586 85.33341692 126.47934092 86.00013733 127.93777466 C87.66609359 131.58202061 89.33199982 135.22628942 90.99780273 138.87060547 C94.00622675 145.45207577 97.01501658 152.03337758 100.02566528 158.61383057 C107.17886919 174.24885425 114.31891141 189.8896598 121.42852783 205.54455566 C126.25048727 216.1612899 131.08822076 226.77071716 135.9375 237.375 C136.26628143 238.09410553 136.59506287 238.81321106 136.93380737 239.55410767 C140.36413399 247.05666569 143.79682729 254.55813141 147.23466492 262.05725098 C148.66733916 265.18288067 150.09899557 268.30897605 151.5305481 271.43511963 C152.20311266 272.90308651 152.87616416 274.37083042 153.54977417 275.83831787 C158.14318799 285.84541362 162.61724049 295.89883902 167 306 C170.34301758 305.26594996 170.34301758 305.26594996 171.78320312 301.69750977 C172.46008762 300.20034182 173.12517415 298.6978089 173.78125 297.19140625 C174.14691574 296.37510742 174.51258148 295.55880859 174.889328 294.71777344 C176.10261695 292.00357356 177.30107716 289.28307248 178.5 286.5625 C179.34889287 284.65762071 180.1989261 282.75324924 181.05004883 280.84936523 C182.82252058 276.88202564 184.59001146 272.91252289 186.35400391 268.94140625 C190.03175752 260.67121236 193.76509972 252.42628799 197.50082397 244.18215942 C198.6936129 241.54900541 199.88472939 238.91510051 201.07543945 236.28100586 C206.40388189 224.49736593 211.77801539 212.73519771 217.17120361 200.9810791 C222.22362013 189.96340525 227.16381702 178.89926622 232.0625 167.8125 C237.68961462 155.07893545 243.4895768 142.4399659 249.43261719 129.85107422 C253.80598469 120.58202437 258.08684344 111.27476797 262.3125 101.9375 C267.8215889 89.76665521 273.39108781 77.62516812 279 65.5 C285.4039014 51.65437836 291.7590055 37.78775085 298.0546875 23.89257812 C301.67056434 15.9130544 305.31736199 7.94894572 309 0 C312.93748458 -0.02898816 316.87494179 -0.04679464 320.8125 -0.0625 C321.93205078 -0.07087891 323.05160156 -0.07925781 324.20507812 -0.08789062 C325.81479492 -0.09272461 325.81479492 -0.09272461 327.45703125 -0.09765625 C328.9416687 -0.10551147 328.9416687 -0.10551147 330.45629883 -0.11352539 C333 0 333 0 336 1 C334.58992503 5.52587882 332.80350905 9.77022487 330.76171875 14.0390625 C330.44495682 14.70868011 330.12819489 15.37829773 329.80183411 16.06820679 C329.12131013 17.50596493 328.43927306 18.94300771 327.75585938 20.37939453 C325.92815114 24.22109022 324.11151758 28.06802498 322.29296875 31.9140625 C321.92577728 32.689776 321.55858582 33.4654895 321.18026733 34.26470947 C317.91805434 41.16020663 314.7022396 48.07643052 311.5 55 C306.7068845 65.3525308 301.86445932 75.68085607 297 86 C291.02283468 98.6805979 285.09441266 111.38259775 279.19921875 124.1015625 C275.87160379 131.28053631 272.53279397 138.45425212 269.1875 145.625 C268.90035126 146.24054749 268.61320251 146.85609497 268.31735229 147.49029541 C263.20836786 158.43875615 258.06328002 169.37008324 252.91293335 180.2991333 C247.88198836 190.97660955 242.89302891 201.67249577 237.93334961 212.38330078 C233.31933539 222.33698588 228.64740436 232.26287224 223.96923828 242.18652344 C219.44885434 251.77703873 214.9550322 261.37890802 210.5 271 C205.03952235 282.79245297 199.51473427 294.55369633 193.96777344 306.30566406 C190.69330483 313.24750583 187.43809775 320.19706369 184.234375 327.171875 C183.93664185 327.81878296 183.63890869 328.46569092 183.33215332 329.13220215 C181.93532809 332.16744371 180.54328617 335.20456726 179.16015625 338.24609375 C174.258719 348.91090078 174.258719 348.91090078 171 353 C168.0625 353.875 168.0625 353.875 165 353 C161.20523614 348.29636119 158.64903351 342.51562541 156.1015625 337.06640625 C155.75016708 336.3245961 155.39877167 335.58278595 155.03672791 334.8184967 C153.89425031 332.40226133 152.75939522 329.98253918 151.625 327.5625 C150.81910431 325.8526192 150.01303065 324.14282227 149.20678711 322.43310547 C143.9260137 311.21207863 138.76293282 299.94065578 133.66540527 288.63543701 C127.59548564 275.18226404 121.27039646 261.85557608 114.91748047 248.53417969 C108.71490153 235.52624522 102.61797861 222.47380185 96.57128906 209.39257812 C93.74820462 203.29724229 90.90486696 197.21135993 88.0625 191.125 C87.47557266 189.86784474 86.88865858 188.61068329 86.30175781 187.35351562 C84.5348062 183.56886983 82.76744204 179.78441678 81 176 C78.64546327 170.95850607 76.29116568 165.91690066 73.9375 160.875 C73.64722931 160.25320862 73.35695862 159.63141724 73.05789185 158.99078369 C68.3221233 148.84498932 63.60417746 138.69099655 58.89208984 128.53417969 C53.20269053 116.2745306 47.48499118 104.02814258 41.76611328 91.78222656 C40.00882897 88.01916534 38.25233625 84.25573503 36.49609375 80.4921875 C36.20749985 79.87374969 35.91890594 79.25531189 35.62156677 78.61813354 C34.16584493 75.49855174 32.7102141 72.37892747 31.25463867 69.25927734 C28.31468985 62.95851364 25.37343006 56.65836723 22.4296875 50.359375 C19.52142144 44.13596178 16.61757125 37.91050219 13.71679688 31.68359375 C12.55294501 29.18548906 11.38741515 26.68817636 10.22070312 24.19140625 C8.51768458 20.54633259 6.82107307 16.89831062 5.125 13.25 C4.60663574 12.14237305 4.08827148 11.03474609 3.55419922 9.89355469 C3.0851416 8.88196289 2.61608398 7.87037109 2.1328125 6.828125 C1.71918457 5.9402832 1.30555664 5.05244141 0.87939453 4.13769531 C0 2 0 2 0 0 Z " fill="#FFEE31" transform="translate(2039,1242)"/>
<path d="M0 0 C0.95930813 -0.00260775 1.91861627 -0.00521549 2.90699434 -0.00790226 C3.97341016 -0.00567154 5.03982598 -0.00344082 6.13855743 -0.0011425 C7.26168319 -0.00270249 8.38480895 -0.00426248 9.54196882 -0.00586975 C13.33691405 -0.00988504 17.13181986 -0.00668806 20.92676544 -0.00355339 C23.63461643 -0.00435668 26.3424657 -0.00665059 29.05031586 -0.00886345 C35.66061895 -0.0133219 42.27091072 -0.01234435 48.88121426 -0.00945081 C54.25113018 -0.00719707 59.62104291 -0.00688413 64.99095917 -0.00797462 C65.7537593 -0.00812786 66.51655942 -0.00828109 67.30247471 -0.00843897 C68.85184244 -0.00875868 70.40121018 -0.00908289 71.95057791 -0.00941156 C86.49632859 -0.01226657 101.04207297 -0.008979 115.58782262 -0.00361119 C128.08247989 0.00085687 140.57712787 0.00008094 153.07178497 -0.00452995 C167.56368745 -0.00987534 182.05558441 -0.01199188 196.54748774 -0.00891769 C198.09131781 -0.00859912 199.63514789 -0.00828475 201.17897797 -0.00797462 C201.93867259 -0.00782035 202.69836721 -0.00766607 203.48108289 -0.00750712 C208.84769826 -0.00664186 214.21431015 -0.00810504 219.58092499 -0.01045418 C226.11651212 -0.01325199 232.65208723 -0.01251433 239.18767297 -0.00717343 C242.52545443 -0.00453615 245.8631991 -0.00406554 249.20098305 -0.00682259 C252.81113568 -0.00953089 256.42123079 -0.0061569 260.0313797 -0.0011425 C261.63100343 -0.00448858 261.63100343 -0.00448858 263.26294279 -0.00790226 C264.22225092 -0.00529452 265.18155906 -0.00268677 266.16993713 0 C267.00440007 0.00016235 267.838863 0.0003247 268.69861269 0.00049198 C270.58496857 0.12584114 270.58496857 0.12584114 271.58496857 1.12584114 C271.58496857 8.38584114 271.58496857 15.64584114 271.58496857 23.12584114 C230.00496857 23.12584114 188.42496857 23.12584114 145.58496857 23.12584114 C145.58496857 129.71584114 145.58496857 236.30584114 145.58496857 346.12584114 C137.33496857 346.12584114 129.08496857 346.12584114 120.58496857 346.12584114 C120.58496857 239.53584114 120.58496857 132.94584114 120.58496857 23.12584114 C79.00496857 23.12584114 37.42496857 23.12584114 -5.41503143 23.12584114 C-5.41503143 0.00105354 -5.41503143 0.00105354 0 0 Z " fill="#FFEE32" transform="translate(3102.4150314331055,1241.874158859253)"/>
<path d="M0 0 C7.59 0 15.18 0 23 0 C24.69368209 1.69368209 24.13235765 3.83156263 24.1386652 6.15184116 C24.14413964 7.27548559 24.14961409 8.39913001 24.15525442 9.55682427 C24.15623253 10.80679678 24.15721064 12.05676929 24.15821838 13.34461975 C24.16562535 15.31825718 24.16562535 15.31825718 24.17318195 17.33176607 C24.18681696 21.00081033 24.19419684 24.66984528 24.20060861 28.33890831 C24.20858912 32.28917739 24.22229492 36.23942693 24.23532104 40.18968201 C24.25711726 47.03938755 24.27525019 53.88909504 24.29092598 60.73881721 C24.31359605 70.64248144 24.34174278 80.54612408 24.37124526 90.44977003 C24.41895637 106.51606438 24.46221098 122.58236755 24.50268555 138.64868164 C24.5420226 154.25969123 24.58345592 169.87069293 24.62768555 185.48168945 C24.63043505 186.45305743 24.63318456 187.42442541 24.63601738 188.42522877 C24.65753533 196.02146605 24.67917524 203.61770297 24.70085371 211.21393979 C24.80716233 248.475944 24.90282886 285.73796867 25 323 C97.93 323.33 170.86 323.66 246 324 C246 331.26 246 338.52 246 346 C164.82 346 83.64 346 0 346 C0 231.82 0 117.64 0 0 Z " fill="#FFEE31" transform="translate(2818,1242)"/>
</svg>
